<svg xmlns="http://www.w3.org/2000/svg" viewBox="0 0 760 920" role="img" aria-labelledby="title desc">
  <title id="title">Cinematic performance artwork</title>
  <desc id="desc">A premium editorial stage image representing JSCASTA performing with cards and spotlight lighting.</desc>
  <defs>
    <linearGradient id="bg" x1="0" y1="0" x2="1" y2="1">
      <stop offset="0" stop-color="#09111F"/>
      <stop offset="0.55" stop-color="#050505"/>
      <stop offset="1" stop-color="#111111"/>
    </linearGradient>
    <radialGradient id="spot" cx="52%" cy="18%" r="65%">
      <stop offset="0" stop-color="#C9A45C" stop-opacity=".44"/>
      <stop offset=".45" stop-color="#7A1E1E" stop-opacity=".14"/>
      <stop offset="1" stop-color="#050505" stop-opacity="0"/>
    </radialGradient>
    <filter id="soft" x="-20%" y="-20%" width="140%" height="140%">
      <feGaussianBlur stdDeviation="20"/>
    </filter>
  </defs>
  <rect width="760" height="920" rx="14" fill="url(#bg)"/>
  <rect width="760" height="920" rx="14" fill="url(#spot)"/>
  <path d="M84 128h592M84 256h592M84 384h592M84 512h592M84 640h592M84 768h592M132 84v752M284 84v752M436 84v752M588 84v752" stroke="#F4F1EA" stroke-opacity=".05"/>
  <ellipse cx="392" cy="236" rx="226" ry="92" fill="#C9A45C" opacity=".16" filter="url(#soft)"/>
  <path d="M375 198c58 0 106 48 106 107v30c0 58-48 106-106 106s-106-48-106-106v-30c0-59 48-107 106-107Z" fill="#1B1B1B"/>
  <path d="M292 312c10-72 56-116 121-109 49 5 79 39 83 92-51-25-111-16-204 17Z" fill="#050505"/>
  <path d="M252 439c35-40 78-60 130-60 58 0 104 21 139 63 43 52 66 140 70 265H191c4-127 24-216 61-268Z" fill="#111111"/>
  <path d="M283 485c61 37 127 38 198 0l48 242H234l49-242Z" fill="#F4F1EA" opacity=".92"/>
  <path d="M333 420c30 28 64 28 101 0v54c-36 32-70 32-101 0v-54Z" fill="#C9A45C"/>
  <path d="M221 564c-66-13-112-32-137-58-20-21-20-46-4-63 18-20 46-16 71 7l96 84-26 30Z" fill="#111111"/>
  <path d="M531 557c71-6 121-23 151-51 21-20 22-46 6-64-17-19-46-17-72 5l-111 79 26 31Z" fill="#111111"/>
  <rect x="81" y="400" width="84" height="116" rx="8" transform="rotate(-17 81 400)" fill="#F4F1EA" stroke="#C9A45C" stroke-width="3"/>
  <rect x="613" y="386" width="84" height="116" rx="8" transform="rotate(16 613 386)" fill="#F4F1EA" stroke="#C9A45C" stroke-width="3"/>
  <path d="M132 448c-12-15-35 1-21 20l21 27 21-27c14-19-9-35-21-20Z" fill="#7A1E1E"/>
  <path d="M657 433c-12-15-35 1-21 20l21 27 21-27c14-19-9-35-21-20Z" fill="#7A1E1E"/>
  <path d="M152 792h456" stroke="#C9A45C" stroke-width="3" stroke-linecap="round" opacity=".7"/>
  <text x="62" y="848" fill="#F4F1EA" fill-opacity=".08" font-family="Arial Narrow, sans-serif" font-size="100" font-weight="700">JSCASTA</text>
</svg>
