<svg xmlns="http://www.w3.org/2000/svg" viewBox="0 0 80 80" role="img" aria-labelledby="title">
  <title id="title">JSCASTA monogram mark</title>
  <rect width="80" height="80" rx="18" fill="#050505"/>
  <rect x="8" y="8" width="64" height="64" rx="14" fill="none" stroke="#C9A45C" stroke-width="2"/>
  <path d="M25 24h18v7h-6v23c0 7-4 11-11 11-4 0-7-1-10-3l3-7c2 1 4 2 6 2 3 0 5-2 5-6V31h-5v-7Zm24 0c9 0 14 4 14 11 0 5-3 8-8 10l10 18H55l-8-16h-4v16h-8V24h14Zm-6 7v10h5c4 0 6-2 6-5s-2-5-6-5h-5Z" fill="#F4F1EA"/>
  <circle cx="61" cy="19" r="3" fill="#7A1E1E"/>
</svg>
